<svg width="14" height="14" viewBox="0 0 14 14" fill="none" xmlns="http://www.w3.org/2000/svg">
<g clip-path="url(#clip0)">
<path d="M12.99 0.77002H1.01C0.744251 0.7713 0.489603 0.876755 0.300756 1.06373C0.111908 1.25071 0.00392429 1.5043 0 1.77002V2.18002C0.000529275 2.44763 0.107141 2.70412 0.296467 2.89326C0.485793 3.0824 0.742386 3.18876 1.01 3.18902H12.99C13.2576 3.18876 13.5142 3.0824 13.7035 2.89326C13.8929 2.70412 13.9995 2.44763 14 2.18002V1.77202C13.9966 1.50595 13.8888 1.25185 13.6999 1.06445C13.511 0.877039 13.2561 0.771309 12.99 0.77002Z" fill="#96A1AB"/>
<path d="M12.99 5.44458H1.01C0.744251 5.44586 0.489603 5.55132 0.300756 5.73829C0.111908 5.92527 0.00392429 6.17886 0 6.44458L0 6.85158C0.000264743 7.11937 0.10676 7.37611 0.296115 7.56547C0.485469 7.75482 0.742213 7.86132 1.01 7.86158H12.99C13.2568 7.86132 13.5126 7.75565 13.7018 7.56759C13.891 7.37953 13.9982 7.12433 14 6.85758V6.44958C13.9976 6.1829 13.8903 5.9279 13.7013 5.73979C13.5122 5.55168 13.2567 5.44562 12.99 5.44458Z" fill="#96A1AB"/>
<path d="M12.987 10.637H1.01C0.744251 10.6382 0.489603 10.7437 0.300756 10.9307C0.111908 11.1177 0.00392429 11.3712 0 11.637L0 12.043C0.000264743 12.3107 0.10676 12.5675 0.296115 12.7568C0.485469 12.9462 0.742213 13.0527 1.01 13.053H12.987C13.2548 13.0535 13.5118 12.9478 13.7018 12.759C13.8917 12.5702 13.9989 12.3137 14 12.046V11.639C13.9968 11.3723 13.8888 11.1176 13.6992 10.9301C13.5095 10.7425 13.2537 10.6372 12.987 10.637Z" fill="#96A1AB"/>
</g>
<defs>
<clipPath id="clip0">
<rect width="14" height="14" fill="white"/>
</clipPath>
</defs>
</svg>
