<svg width="49" height="49" viewBox="0 0 49 49" fill="none" xmlns="http://www.w3.org/2000/svg">
<rect x="4.27686" y="4" width="40.39" height="40.39" rx="20.195" fill="#3186F5" stroke="white" stroke-width="8"/>
<path d="M29.9872 31.1243C30.3781 31.5145 31.0112 31.5139 31.4014 31.123C31.7916 30.7321 31.791 30.0989 31.4001 29.7088L29.9872 31.1243ZM27.6431 27.3716L26.9365 26.664L27.6431 27.3716ZM23.7542 27.9808C21.2669 27.9808 19.2505 25.9644 19.2505 23.4771H17.2505C17.2505 27.069 20.1623 29.9808 23.7542 29.9808V27.9808ZM19.2505 23.4771C19.2505 20.9898 21.2669 18.9734 23.7542 18.9734V16.9734C20.1623 16.9734 17.2505 19.8852 17.2505 23.4771H19.2505ZM23.7542 18.9734C26.2415 18.9734 28.2579 20.9898 28.2579 23.4771H30.2579C30.2579 19.8852 27.3461 16.9734 23.7542 16.9734V18.9734ZM28.2579 23.4771C28.2579 24.7222 27.7539 25.8477 26.9365 26.664L28.3497 28.0792C29.5275 26.9031 30.2579 25.2744 30.2579 23.4771H28.2579ZM26.9365 26.664C26.1206 27.4787 24.997 27.9808 23.7542 27.9808V29.9808C25.5482 29.9808 27.1741 29.2531 28.3497 28.0792L26.9365 26.664ZM26.9366 28.0793L29.9872 31.1243L31.4001 29.7088L28.3495 26.6638L26.9366 28.0793Z" fill="white"/>
</svg>
