<svg width="14" height="14" viewBox="0 0 14 14" fill="none" xmlns="http://www.w3.org/2000/svg">
<path d="M13.7071 1.70712C14.0976 1.3166 14.0976 0.683433 13.7071 0.292909C13.3166 -0.0976152 12.6834 -0.0976152 12.2929 0.292909L13.7071 1.70712ZM0.292893 12.2929C-0.0976311 12.6834 -0.0976311 13.3166 0.292893 13.7071C0.683418 14.0976 1.31658 14.0976 1.70711 13.7071L0.292893 12.2929ZM12.2929 13.7071C12.6834 14.0976 13.3166 14.0976 13.7071 13.7071C14.0976 13.3166 14.0976 12.6834 13.7071 12.2929L12.2929 13.7071ZM1.70711 0.292893C1.31658 -0.0976311 0.683417 -0.0976311 0.292893 0.292893C-0.0976311 0.683418 -0.0976311 1.31658 0.292893 1.70711L1.70711 0.292893ZM12.2929 0.292909L0.292893 12.2929L1.70711 13.7071L13.7071 1.70712L12.2929 0.292909ZM13.7071 12.2929L1.70711 0.292893L0.292893 1.70711L12.2929 13.7071L13.7071 12.2929Z" fill="#A4ABB1"/>
</svg>
