<svg width="34" height="40" viewBox="0 0 34 40" fill="none" xmlns="http://www.w3.org/2000/svg">
<path d="M14.8752 38.4085L14.874 38.4077L2.5049 29.4097C2.50467 29.4095 2.50444 29.4093 2.50421 29.4092C1.58088 28.7338 1 27.5773 1 26.3071V4.68506C1 2.57542 2.56361 1 4.2957 1H29.0376C30.784 1 32.3333 2.57279 32.3333 4.68506V26.3071C32.3333 27.5774 31.7524 28.7339 30.829 29.4092C30.8288 29.4094 30.8286 29.4095 30.8284 29.4097L18.4626 38.4053C18.4619 38.4058 18.4612 38.4063 18.4606 38.4068C17.3596 39.1997 15.9532 39.1952 14.8752 38.4085Z" stroke="#0E1C2D" stroke-width="2"/>
<path fill-rule="evenodd" clip-rule="evenodd" d="M20.296 23.4021C19.6931 23.669 19.0856 23.9172 18.4048 24.0944L17.9181 26.4111C17.7927 27.0079 17.3294 27.2925 16.8603 27.2999C17.3293 27.2924 17.7924 27.0078 17.9178 26.411L18.4045 24.0944C19.0854 23.9172 19.6929 23.669 20.2958 23.4021L20.3141 23.394L20.3321 23.3853C21.6745 22.7318 22.7637 21.7488 23.5905 20.4607L23.5961 20.4521L23.6015 20.4433C24.3623 19.2088 24.7772 17.7406 24.7772 16.2051C24.7772 14.9802 24.5204 13.9136 23.8739 12.9245C23.278 12.0128 22.486 11.2317 21.4134 10.7095C21.345 10.6762 21.2728 10.6427 21.1972 10.6095L21.5194 8.96253C21.6802 8.14051 21.0921 7.37248 20.2816 7.30481C21.0922 7.37235 21.6804 8.14044 21.5196 8.96255L21.1974 10.6095C21.273 10.6427 21.3453 10.6762 21.4137 10.7095C22.4863 11.2317 23.2783 12.0128 23.8742 12.9245C24.5206 13.9136 24.7775 14.9802 24.7775 16.2051C24.7775 17.7406 24.3625 19.2088 23.6017 20.4433L23.5963 20.4521L23.5908 20.4607C22.7639 21.7488 21.6747 22.7318 20.3323 23.3853L20.3143 23.394L20.296 23.4021ZM10.5822 24.3381C10.589 24.3382 10.5958 24.3382 10.6027 24.3382L13.1414 24.3382H10.6024C10.5957 24.3382 10.589 24.3382 10.5822 24.3381ZM14.1926 27.286C14.1995 27.2861 14.2064 27.2861 14.2132 27.2861H16.6597C16.6597 27.2861 16.6597 27.2861 16.6597 27.2861H14.213C14.2062 27.2861 14.1994 27.2861 14.1926 27.286ZM21.537 10.4359L21.814 9.02015C22.018 7.97724 21.2272 7 20.1655 7H17.774C16.9655 7 16.2742 7.57938 16.1235 8.37584L15.8792 9.66716H12.9412C12.1405 9.66716 11.4535 10.2357 11.2947 11.0226L8.9561 22.6081C8.74502 23.6538 9.53678 24.6382 10.6027 24.6382H12.7684L12.5728 25.5269C12.3409 26.5805 13.1352 27.5861 14.2132 27.5861H16.6383C17.2933 27.6755 18.0324 27.3256 18.2117 26.4727L18.6606 24.3358C19.2924 24.1572 19.8622 23.9222 20.4175 23.6765L20.4357 23.6684L20.4637 23.655C21.8576 22.9764 22.9879 21.9552 23.8432 20.6228L23.8488 20.6141L23.8571 20.6007C24.648 19.3173 25.0775 17.7944 25.0775 16.2051C25.0775 14.9344 24.8098 13.8078 24.1253 12.7604C23.5049 11.8112 22.6742 10.9895 21.545 10.4398L21.537 10.4359ZM17.3869 25.2155C17.386 25.215 17.3851 25.2145 17.3841 25.214C17.7102 25.4093 17.9288 25.7681 17.9288 26.1785C17.9288 26.1598 17.9284 26.1412 17.9277 26.1229C17.9187 25.9384 17.8656 25.7657 17.7787 25.6152C17.6838 25.4508 17.5487 25.313 17.3869 25.2155ZM20.1795 8.41459C20.1748 8.41435 20.17 8.41423 20.1652 8.41423H17.7738C17.6413 8.41423 17.5275 8.50922 17.5026 8.64055L17.0837 10.8551C17.0588 10.9864 16.945 11.0814 16.8125 11.0814H12.941C12.8098 11.0814 12.6967 11.1746 12.6705 11.3043L10.3319 22.8898C10.298 23.0578 10.4209 23.2152 10.5883 23.2236C10.421 23.2151 10.2983 23.0577 10.3322 22.8898L12.6707 11.3044C12.6969 11.1746 12.81 11.0814 12.9412 11.0814H16.8127C16.9452 11.0814 17.059 10.9864 17.0839 10.8551L17.5029 8.64056C17.5277 8.50923 17.6415 8.41424 17.774 8.41424H20.1655C20.1702 8.41424 20.1749 8.41436 20.1795 8.41459ZM14.1881 23.2243C14.3575 23.2329 14.4806 23.3937 14.4434 23.5629L13.9438 25.8329C13.9065 26.0021 14.0296 26.1628 14.1988 26.1715C14.0294 26.1629 13.9063 26.0022 13.9435 25.8329L14.4431 23.5629C14.4804 23.3938 14.3573 23.2331 14.1881 23.2243ZM22.41 19.6952C21.7189 20.7711 20.8249 21.5736 19.7261 22.1096C18.999 22.4313 18.352 22.6843 17.6043 22.8262C17.3764 22.8695 17.19 23.0446 17.1407 23.279L16.596 25.8719H14.2424L14.7363 23.6274C14.8151 23.2696 14.5456 22.924 14.1739 22.924H10.6313L12.9612 11.3814H16.8127C17.0913 11.3814 17.3274 11.182 17.3787 10.9108L17.7943 8.71424H20.137L19.6839 11.0301C19.6219 11.3472 19.8277 11.6349 20.1124 11.7156C20.3587 11.7854 20.5986 11.8836 20.8026 11.9828C21.6111 12.3764 22.2211 12.9675 22.7012 13.7021C23.1678 14.4159 23.3733 15.1982 23.3733 16.2051C23.3733 17.4839 23.0279 18.6917 22.41 19.6952ZM14.8481 13.9909C14.3999 13.8405 14.5081 13.1783 14.9808 13.1783H17.7401C18.6672 13.1783 19.4604 13.4774 20.0233 14.0205L20.0293 14.0263L20.0349 14.0325C20.5852 14.6393 20.8998 15.4009 20.8998 16.3061C20.8998 17.1102 20.7481 17.8578 20.3573 18.5365C19.9776 19.1959 19.5138 19.7221 18.8876 20.0998C18.2714 20.4714 17.5726 20.6972 16.7945 20.6972H13.6528C13.1716 20.6972 13.0728 20.0171 13.5341 19.8802L14.1799 19.6884L15.3402 14.1561L14.8481 13.9909ZM16.8561 14.7926L15.9562 19.0829H16.7945C17.2454 19.0829 17.6592 18.9555 18.054 18.7174C18.3945 18.5121 18.6817 18.2114 18.9584 17.731C19.1745 17.3555 19.2856 16.9032 19.2856 16.3061C19.2856 15.8258 19.1356 15.4596 18.8714 15.1534C18.6518 14.9573 18.2907 14.7926 17.7401 14.7926H16.8561Z" fill="#0E1C2D"/>
</svg>
