<svg width="34" height="40" viewBox="0 0 34 40" fill="none" xmlns="http://www.w3.org/2000/svg">
<path d="M14.8752 38.4085L14.874 38.4077L2.5049 29.4097C2.50467 29.4095 2.50444 29.4093 2.50421 29.4092C1.58088 28.7338 1 27.5773 1 26.3071V4.68506C1 2.57542 2.56361 1 4.2957 1H29.0376C30.784 1 32.3333 2.57279 32.3333 4.68506V26.3071C32.3333 27.5772 31.7526 28.7335 30.8295 29.4089C30.8291 29.4092 30.8288 29.4094 30.8284 29.4097L18.4626 38.4053C18.4619 38.4058 18.4612 38.4063 18.4606 38.4068C17.3596 39.1997 15.9532 39.1952 14.8752 38.4085Z" stroke="#0E1C2D" stroke-width="2"/>
<path d="M10 15.7376H11H10ZM10 21.5427L9 21.5427L10 21.5427ZM23.4882 22.6667V21.6667V22.6667ZM11.124 22.6667V23.6667H11.124L11.124 22.6667ZM24.6122 15.7377H23.6122H24.6122ZM24.6122 21.5426H25.6122H24.6122ZM24.0174 14.2144L23.282 14.892L24.0174 14.2144ZM18.9594 8.72475L18.2239 9.40235V9.40235L18.9594 8.72475ZM15.6529 8.72474L16.3883 9.40235L15.6529 8.72474ZM10.5948 14.2143L9.85936 13.5367H9.85936L10.5948 14.2143ZM15.0581 17.0466H16.0581H15.0581ZM15.0581 22.1047L14.0581 22.1047L15.0581 22.1047ZM18.9921 22.6667V21.6667V22.6667ZM15.6201 22.6667V23.6667V22.6667ZM19.5541 17.0466H20.5541H19.5541ZM19.5541 22.1047H18.5541H19.5541ZM18.9921 16.4846L18.9921 17.4846L18.9921 16.4846ZM15.6201 16.4846L15.6201 17.4846H15.6201L15.6201 16.4846ZM9 15.7376L9 21.5427L11 21.5427L11 15.7376H9ZM23.4882 21.6667L11.124 21.6667L11.124 23.6667L23.4882 23.6667L23.4882 21.6667ZM23.6122 15.7377V21.5426H25.6122V15.7377H23.6122ZM24.7528 13.5368L19.6948 8.04714L18.2239 9.40235L23.282 14.892L24.7528 13.5368ZM14.9174 8.04713L9.85936 13.5367L11.3302 14.8919L16.3883 9.40235L14.9174 8.04713ZM19.6948 8.04714C18.4084 6.65096 16.2039 6.65095 14.9174 8.04713L16.3883 9.40235C16.8826 8.86588 17.7296 8.86588 18.2239 9.40235L19.6948 8.04714ZM25.6122 15.7377C25.6122 14.9221 25.3054 14.1365 24.7528 13.5368L23.282 14.892C23.4943 15.1224 23.6122 15.4243 23.6122 15.7377H25.6122ZM11 15.7376C11 15.4243 11.1179 15.1224 11.3302 14.8919L9.85936 13.5367C9.30677 14.1365 9 14.9221 9 15.7376H11ZM9 21.5427C9 22.7157 9.95095 23.6667 11.124 23.6667L11.124 21.6667C11.0555 21.6667 11 21.6111 11 21.5427L9 21.5427ZM23.4882 23.6667C24.6613 23.6667 25.6122 22.7157 25.6122 21.5426H23.6122C23.6122 21.6111 23.5567 21.6667 23.4882 21.6667V23.6667ZM14.0581 17.0466L14.0581 22.1047L16.0581 22.1047L16.0581 17.0466L14.0581 17.0466ZM18.9921 21.6667H15.6201V23.6667H18.9921V21.6667ZM18.5541 17.0466L18.5541 22.1047H20.5541L20.5541 17.0466L18.5541 17.0466ZM18.9921 15.4846L15.6201 15.4846L15.6201 17.4846L18.9921 17.4846L18.9921 15.4846ZM20.5541 17.0466C20.5541 16.1839 19.8548 15.4846 18.9921 15.4846L18.9921 17.4846C18.7502 17.4846 18.5541 17.2885 18.5541 17.0466H20.5541ZM16.0581 17.0466C16.0581 17.2885 15.862 17.4846 15.6201 17.4846L15.6201 15.4846C14.7574 15.4846 14.0581 16.1839 14.0581 17.0466L16.0581 17.0466ZM14.0581 22.1047C14.0581 22.9673 14.7574 23.6667 15.6201 23.6667V21.6667C15.862 21.6667 16.0581 21.8628 16.0581 22.1047L14.0581 22.1047ZM18.9921 23.6667C19.8548 23.6667 20.5541 22.9673 20.5541 22.1047H18.5541C18.5541 21.8628 18.7502 21.6667 18.9921 21.6667V23.6667Z" fill="#0E1C2D"/>
</svg>
