<svg width="34" height="40" viewBox="0 0 34 40" fill="none" xmlns="http://www.w3.org/2000/svg">
<path d="M14.8752 38.4085L14.874 38.4077L2.5049 29.4097C2.50467 29.4095 2.50444 29.4093 2.50421 29.4092C1.58088 28.7338 1 27.5773 1 26.3071V4.68506C1 2.57542 2.56361 1 4.2957 1H29.0376C30.784 1 32.3333 2.57279 32.3333 4.68506V26.3071C32.3333 27.5774 31.7524 28.7339 30.829 29.4092C30.8288 29.4094 30.8286 29.4095 30.8284 29.4097L18.4626 38.4053C18.4619 38.4058 18.4612 38.4063 18.4606 38.4068C17.3596 39.1997 15.9532 39.1952 14.8752 38.4085Z" stroke="#0E1C2D" stroke-width="2"/>
<path d="M12.584 9H10.084C9.5317 9 9.08398 9.44772 9.08398 10V12.5" stroke="#0E1C2D" stroke-width="2" stroke-linecap="round"/>
<path d="M20.584 9H23.084C23.6363 9 24.084 9.44772 24.084 10V12.5" stroke="#0E1C2D" stroke-width="2" stroke-linecap="round"/>
<path d="M12.584 25H10.084C9.5317 25 9.08398 24.5523 9.08398 24V21.5" stroke="#0E1C2D" stroke-width="2" stroke-linecap="round"/>
<path d="M20.584 25H23.084C23.6363 25 24.084 24.5523 24.084 24V21.5" stroke="#0E1C2D" stroke-width="2" stroke-linecap="round"/>
<path d="M7.33398 16.875H26.0007" stroke="#0E1C2D" stroke-width="2" stroke-linecap="round"/>
</svg>
