<svg width="34" height="40" viewBox="0 0 34 40" fill="none" xmlns="http://www.w3.org/2000/svg">
<path d="M14.8752 38.4085L14.874 38.4077L2.5049 29.4097C2.50467 29.4095 2.50444 29.4093 2.50421 29.4092C1.58088 28.7338 1 27.5773 1 26.3071V4.68506C1 2.57542 2.56361 1 4.2957 1H29.0376C30.784 1 32.3333 2.57279 32.3333 4.68506V26.3071C32.3333 27.5774 31.7524 28.7339 30.829 29.4092C30.8288 29.4094 30.8286 29.4095 30.8284 29.4097L18.4626 38.4053C18.4619 38.4058 18.4612 38.4063 18.4606 38.4068C17.3596 39.1997 15.9532 39.1952 14.8752 38.4085Z" stroke="#26B55F" stroke-width="2"/>
<path d="M24.7946 22.3334L8.73108 22.3334L8.73108 24.3334L24.7946 24.3334L24.7946 22.3334ZM24.7946 19.5398L8.73108 19.5398L8.73108 21.5398L24.7946 21.5398L24.7946 19.5398ZM27.1914 21.9366C27.1914 20.6129 26.1183 19.5398 24.7946 19.5398L24.7946 21.5398C25.0137 21.5398 25.1914 21.7175 25.1914 21.9366L27.1914 21.9366ZM8.33426 21.9366C8.33426 21.7175 8.51192 21.5398 8.73108 21.5398L8.73108 19.5398C7.40735 19.5398 6.33426 20.6129 6.33426 21.9366L8.33426 21.9366ZM8.73108 22.3334C8.51192 22.3334 8.33426 22.1558 8.33426 21.9366L6.33426 21.9366C6.33426 23.2603 7.40735 24.3334 8.73108 24.3334L8.73108 22.3334ZM24.7946 24.3334C26.1183 24.3334 27.1914 23.2604 27.1914 21.9366L25.1914 21.9366C25.1914 22.1558 25.0137 22.3334 24.7946 22.3334L24.7946 24.3334Z" fill="#26B55F"/>
<path d="M23.7939 20.5398C23.7939 21.092 24.2417 21.5398 24.7939 21.5398C25.3462 21.5398 25.7939 21.092 25.7939 20.5398L23.7939 20.5398ZM7.73045 20.5398C7.73045 21.0921 8.17817 21.5398 8.73045 21.5398C9.28274 21.5398 9.73045 21.0921 9.73045 20.5398L7.73045 20.5398ZM8.73045 10.6668L7.73045 10.6668L8.73045 10.6668ZM23.7939 10.6667L23.7939 20.5398L25.7939 20.5398L25.7939 10.6667L23.7939 10.6667ZM7.73045 10.6668L7.73045 20.5398L9.73045 20.5398L9.73045 10.6668L7.73045 10.6668ZM22.7939 7.66675L10.7304 7.66676L10.7304 9.66676L22.7939 9.66675L22.7939 7.66675ZM25.7939 10.6667C25.7939 9.00989 24.4508 7.66675 22.7939 7.66675L22.7939 9.66675C23.3462 9.66675 23.7939 10.1145 23.7939 10.6667L25.7939 10.6667ZM9.73045 10.6668C9.73045 10.1145 10.1782 9.66676 10.7304 9.66676L10.7304 7.66676C9.07359 7.66676 7.73045 9.00991 7.73045 10.6668L9.73045 10.6668Z" fill="#26B55F"/>
</svg>
