<svg width="34" height="40" viewBox="0 0 34 40" fill="none" xmlns="http://www.w3.org/2000/svg">
<path d="M14.8752 38.4085L14.874 38.4077L2.5049 29.4097C2.50467 29.4095 2.50444 29.4093 2.50421 29.4092C1.58088 28.7338 1 27.5773 1 26.3071V4.68506C1 2.57542 2.56361 1 4.2957 1H29.0376C30.784 1 32.3333 2.57279 32.3333 4.68506V26.3071C32.3333 27.5772 31.7526 28.7335 30.8295 29.4089C30.8291 29.4092 30.8288 29.4094 30.8284 29.4097L18.4626 38.4053C18.4619 38.4058 18.4612 38.4063 18.4606 38.4068C17.3596 39.1997 15.9532 39.1952 14.8752 38.4085Z" stroke="#26B55F" stroke-width="2"/>
<path d="M9 15.7376H10H9ZM9 21.5427L8 21.5427L9 21.5427ZM22.4882 22.6667V21.6667V22.6667ZM10.124 22.6667V23.6667H10.124L10.124 22.6667ZM23.6122 15.7377H22.6122H23.6122ZM23.6122 21.5426H24.6122H23.6122ZM23.0174 14.2144L22.282 14.892L23.0174 14.2144ZM17.9594 8.72475L17.2239 9.40235V9.40235L17.9594 8.72475ZM14.6529 8.72474L15.3883 9.40235L14.6529 8.72474ZM9.59478 14.2143L8.85936 13.5367H8.85936L9.59478 14.2143ZM14.0581 17.0466H15.0581H14.0581ZM14.0581 22.1047L13.0581 22.1047L14.0581 22.1047ZM17.9921 22.6667V21.6667V22.6667ZM14.6201 22.6667V23.6667V22.6667ZM18.5541 17.0466H19.5541H18.5541ZM18.5541 22.1047H17.5541H18.5541ZM17.9921 16.4846L17.9921 17.4846L17.9921 16.4846ZM14.6201 16.4846L14.6201 17.4846H14.6201L14.6201 16.4846ZM8 15.7376L8 21.5427L10 21.5427L10 15.7376H8ZM22.4882 21.6667L10.124 21.6667L10.124 23.6667L22.4882 23.6667L22.4882 21.6667ZM22.6122 15.7377V21.5426H24.6122V15.7377H22.6122ZM23.7528 13.5368L18.6948 8.04714L17.2239 9.40235L22.282 14.892L23.7528 13.5368ZM13.9174 8.04713L8.85936 13.5367L10.3302 14.8919L15.3883 9.40235L13.9174 8.04713ZM18.6948 8.04714C17.4084 6.65096 15.2039 6.65095 13.9174 8.04713L15.3883 9.40235C15.8826 8.86588 16.7296 8.86588 17.2239 9.40235L18.6948 8.04714ZM24.6122 15.7377C24.6122 14.9221 24.3054 14.1365 23.7528 13.5368L22.282 14.892C22.4943 15.1224 22.6122 15.4243 22.6122 15.7377H24.6122ZM10 15.7376C10 15.4243 10.1179 15.1224 10.3302 14.8919L8.85936 13.5367C8.30677 14.1365 8 14.9221 8 15.7376H10ZM8 21.5427C8 22.7157 8.95095 23.6667 10.124 23.6667L10.124 21.6667C10.0555 21.6667 10 21.6111 10 21.5427L8 21.5427ZM22.4882 23.6667C23.6613 23.6667 24.6122 22.7157 24.6122 21.5426H22.6122C22.6122 21.6111 22.5567 21.6667 22.4882 21.6667V23.6667ZM13.0581 17.0466L13.0581 22.1047L15.0581 22.1047L15.0581 17.0466L13.0581 17.0466ZM17.9921 21.6667H14.6201V23.6667H17.9921V21.6667ZM17.5541 17.0466L17.5541 22.1047H19.5541L19.5541 17.0466L17.5541 17.0466ZM17.9921 15.4846L14.6201 15.4846L14.6201 17.4846L17.9921 17.4846L17.9921 15.4846ZM19.5541 17.0466C19.5541 16.1839 18.8548 15.4846 17.9921 15.4846L17.9921 17.4846C17.7502 17.4846 17.5541 17.2885 17.5541 17.0466H19.5541ZM15.0581 17.0466C15.0581 17.2885 14.862 17.4846 14.6201 17.4846L14.6201 15.4846C13.7574 15.4846 13.0581 16.1839 13.0581 17.0466L15.0581 17.0466ZM13.0581 22.1047C13.0581 22.9673 13.7574 23.6667 14.6201 23.6667V21.6667C14.862 21.6667 15.0581 21.8628 15.0581 22.1047L13.0581 22.1047ZM17.9921 23.6667C18.8548 23.6667 19.5541 22.9673 19.5541 22.1047H17.5541C17.5541 21.8628 17.7502 21.6667 17.9921 21.6667V23.6667Z" fill="#26B55F"/>
</svg>
