<svg width="25" height="32" viewBox="0 0 25 32" fill="none" xmlns="http://www.w3.org/2000/svg">
<path d="M11.8819 32L13.057 26.4567C14.6238 26.2047 15.9296 25.7008 17.3658 25.0709C19.4549 24.063 21.1524 22.5512 22.4581 20.5354C23.6332 18.6457 24.286 16.378 24.286 13.9843C24.286 12.0945 23.8943 10.5827 22.9803 9.19685C22.0663 7.81102 20.8912 6.67717 19.3244 5.92126C18.8021 5.66929 18.1492 5.41732 17.4964 5.29134L18.541 0H13.1876L12.2736 4.7874H4.43938L0 26.5827H7.70364L6.5285 31.874H11.8819V32ZM3.52539 22.0472L6.92022 21.0394L9.13991 10.4567L6.1368 9.44882H9.53162H12.9264C14.4933 9.44882 15.799 9.95276 16.713 10.8346C17.627 11.8425 18.1492 13.1024 18.1492 14.6142C18.1492 16 17.8881 17.2598 17.2353 18.3937C16.5824 19.5276 15.799 20.4095 14.7544 21.0394C13.7099 21.6693 12.5347 22.0472 11.229 22.0472H6.78964H3.52539Z" fill="white"/>
</svg>
