<svg width="209" height="40" viewBox="0 0 209 40" fill="none" xmlns="http://www.w3.org/2000/svg">
<path d="M57.2218 10.0635V24.804H53.7394V15.0753L50.1464 20.6951H49.8147L46.2217 15.0753V24.804H42.7393V10.0635H46.7008L49.9805 15.1121L53.2603 10.0635H57.2218Z" fill="white"/>
<path d="M71.0777 19.7738H62.8414C63.0073 21.5611 64.1128 22.3165 65.3289 22.3165C66.2686 22.3165 67.0609 21.8559 67.3189 21.0083H70.9119C70.138 23.8643 67.7795 25.0804 65.3289 25.0804C61.7175 25.0804 59.3037 22.4455 59.3037 19.0183C59.3037 15.5912 61.7543 12.9563 65.2552 12.9563C68.9772 12.9563 71.4278 15.9597 71.0777 19.7738ZM62.952 17.618H67.4479C67.2267 16.494 66.4897 15.7201 65.2368 15.7201C63.9654 15.7201 63.2284 16.494 62.952 17.618Z" fill="white"/>
<path d="M80.1434 13.0116V16.6967C79.9223 16.6783 79.7749 16.6599 79.4433 16.6599C77.8034 16.6599 76.2188 17.1574 76.2188 19.7922V24.804H72.7363V13.2327H76.2188V15.02C76.919 13.6012 78.0613 12.9563 79.4985 12.9563C79.7749 12.9563 79.9776 12.9747 80.1434 13.0116Z" fill="white"/>
<path d="M81.0645 19.0183C81.0645 15.5912 83.5335 12.9563 86.9975 12.9563C89.8166 12.9563 92.341 14.7067 92.691 17.8022H89.0796C88.8217 16.6783 87.9188 16.2729 86.9791 16.2729C85.4313 16.2729 84.5838 17.4153 84.5838 19.0368C84.5838 20.6951 85.505 21.8006 86.9607 21.8006C87.9004 21.8006 88.8032 21.34 89.0796 20.2344H92.6726C92.3041 23.4405 89.7245 25.0988 86.9607 25.0988C83.5151 25.0804 81.0645 22.4455 81.0645 19.0183Z" fill="white"/>
<path d="M105.147 17.5627V24.8039H101.665V18.355C101.665 17.0836 101.296 16.3466 99.8959 16.3466C98.5324 16.3466 97.8506 17.0467 97.8506 18.6498V24.8039H94.3682V8.58936H97.8506V14.5408C98.6798 13.509 99.7116 12.9562 101.112 12.9562C103.599 12.9562 105.147 14.7435 105.147 17.5627Z" fill="white"/>
<path d="M118.598 13.2327L118.58 24.804H115.097V23.5695C114.379 24.4723 113.347 25.0804 111.91 25.0804C109.035 25.0804 106.824 22.5929 106.824 19.0183C106.824 15.4253 109.091 12.9563 111.891 12.9563C113.328 12.9563 114.397 13.5828 115.116 14.5409V13.2327H118.598ZM115.097 19.0183C115.097 17.4153 114.066 16.365 112.72 16.365C111.357 16.365 110.344 17.4153 110.344 19.0183C110.344 20.6398 111.394 21.6716 112.72 21.6716C114.084 21.6716 115.097 20.6398 115.097 19.0183Z" fill="white"/>
<path d="M131.559 17.6526V24.8938H128.077V18.4449C128.077 17.1735 127.708 16.4365 126.289 16.4365C124.907 16.4365 124.226 17.1366 124.226 18.7397V24.8938H120.743V13.3225H124.226V14.6307C125.055 13.5989 126.087 13.0461 127.487 13.0461C130.011 13.0461 131.559 14.8334 131.559 17.6526Z" fill="white"/>
<path d="M142.496 24.0671C141.851 24.5277 140.377 25.0805 138.958 25.0805C136.784 25.0805 134.647 23.7723 134.647 20.3267V16.6047H132.712V13.2328H134.647V10.8559L138.129 10.082V13.2328H141.925V16.6047H138.129V20.124C138.129 21.248 138.682 21.7639 139.566 21.7639C140.174 21.7639 140.93 21.5059 141.888 21.1927L142.496 24.0671Z" fill="white"/>
<path d="M151.638 13.1591V13.2144H156.208V14.8542H151.638V24.7857H149.943V14.8727H147.769V13.2328H149.943V13.0854C149.943 10.0451 151.638 8.36841 154.144 8.36841C154.973 8.36841 155.876 8.53424 156.558 8.84748L156.244 10.3031L155.95 10.211C155.397 10.0083 154.826 9.91616 154.31 9.91616C152.43 9.91616 151.638 11.1323 151.638 13.1591Z" fill="white"/>
<path d="M160.353 9.28972C160.353 9.97147 159.837 10.469 159.156 10.469C158.474 10.469 157.958 9.97147 157.958 9.28972C157.958 8.64482 158.474 8.12891 159.156 8.12891C159.856 8.12891 160.353 8.64482 160.353 9.28972ZM158.308 13.2328H160.003V24.8041H158.308V13.2328Z" fill="white"/>
<path d="M172.625 17.4706V24.8225H170.929V17.8207C170.929 15.7386 169.916 14.6884 168.073 14.6884C165.77 14.6884 164.499 16.3467 164.499 18.9078V24.8409H162.804V13.2327H164.499V15.5359C165.254 13.9698 166.563 13.0116 168.534 13.0116C171.095 12.9932 172.625 14.6331 172.625 17.4706Z" fill="white"/>
<path d="M186.186 8.58936V24.8039H184.491V22.4639C183.625 24.0301 182.096 25.0251 180.143 25.0251C177.066 25.0251 174.873 22.5007 174.873 18.9999C174.873 15.4806 177.084 12.9747 180.143 12.9747C182.096 12.9747 183.625 14.0065 184.491 15.5911V8.58936H186.186ZM184.51 19.0183C184.51 16.4755 182.759 14.6514 180.474 14.6514C178.19 14.6514 176.587 16.4755 176.587 19.0183C176.587 21.561 178.19 23.3852 180.474 23.3852C182.759 23.3852 184.51 21.561 184.51 19.0183Z" fill="white"/>
<path d="M199.895 19.5527H190.221C190.387 21.948 192.045 23.4036 194.33 23.4036C195.896 23.4036 197.186 22.7219 197.868 21.3768H199.637C198.697 23.8459 196.633 25.0435 194.275 25.0435C190.921 25.0435 188.489 22.5929 188.489 19.0736C188.489 15.5543 190.885 13.0116 194.256 13.0116C197.757 12.9931 200.042 15.7386 199.895 19.5527ZM190.313 17.9128H198.052C197.684 15.9781 196.283 14.6515 194.256 14.6515C192.174 14.633 190.7 16.015 190.313 17.9128Z" fill="white"/>
<path d="M208.481 13.0485V14.8358C208.297 14.8173 208.058 14.7989 207.763 14.7989C205.404 14.7989 203.764 16.3835 203.764 19.3501V24.8225H202.069V13.2327H203.764V15.8308C204.446 14.0987 205.791 13.0116 207.781 13.0116C208.039 12.9932 208.316 13.0116 208.481 13.0485Z" fill="white"/>
<path d="M31.8011 30.217L19.2795 39.2163C17.8134 40.2612 15.909 40.2612 14.4597 39.2163L1.93807 30.217C0.724668 29.3406 0 27.8744 0 26.3071V4.68506C0 2.10659 1.95492 0 4.34801 0H29.3912C31.8011 0 33.7392 2.10659 33.7392 4.68506V26.3071C33.7392 27.8744 33.0145 29.3406 31.8011 30.217Z" fill="white"/>
<path d="M28.6165 19.8524C28.4648 19.5996 28.212 19.448 27.9255 19.448C27.7401 19.448 27.4368 19.5154 27.1671 19.8187C26.7121 20.358 26.3245 20.7456 26.0043 20.9816C25.7346 21.1669 25.4313 21.2681 25.1616 21.2681C24.892 21.2681 24.6729 21.2006 24.5549 21.0658C24.4033 20.9141 24.3527 20.6445 24.3527 20.2906C24.3527 19.9198 24.4201 19.4648 24.5212 18.9424L25.5324 14.173C25.6841 13.4315 25.7683 12.8248 25.7683 12.3024C25.7683 11.3081 25.5155 10.516 25.0605 9.94301C24.5381 9.33631 23.8134 9.03296 22.9371 9.03296C21.8585 9.03296 20.9147 9.40372 20.089 10.1452C19.6676 10.516 19.2969 11.0216 18.9093 11.6451C18.825 10.9542 18.5891 10.3812 18.2352 9.95986C17.7296 9.35316 17.0555 9.03296 16.2128 9.03296C15.168 9.03296 14.1905 9.43742 13.331 10.2127C12.9265 10.5666 12.5558 11.0553 12.2187 11.6451C12.2019 10.8531 12.0165 10.1958 11.6289 9.75763C11.2076 9.3026 10.6346 9.04981 9.9099 9.04981C9.16838 9.04981 8.44371 9.28575 7.71904 9.72392C7.02808 10.1621 6.37082 10.7688 5.83153 11.5609C5.64615 11.8305 5.51133 12.0665 5.42707 12.2687C5.32595 12.5046 5.27539 12.7237 5.27539 12.9596C5.27539 13.2293 5.35965 13.4821 5.52818 13.718C5.78097 14.0382 6.06747 14.0888 6.2697 14.0888C6.50564 14.0888 6.80899 14.0045 7.11234 13.6001C7.56737 12.9934 7.98868 12.5552 8.3763 12.2687C8.79762 11.9822 9.05041 11.9148 9.16838 11.9148C9.23579 11.9148 9.32005 11.9148 9.32005 12.2518C9.32005 12.7574 9.28635 13.4315 9.16838 14.2068C8.99985 15.4707 8.76391 16.9875 8.49427 18.7233C8.32574 19.667 8.20777 20.4254 8.14036 20.9479C8.05609 21.4871 8.03924 21.959 8.03924 22.3298C8.03924 22.9533 8.15721 23.3746 8.41 23.6611C8.66279 23.9308 9.06726 24.0656 9.5897 24.0656C10.1627 24.0656 10.584 23.8971 10.8031 23.56C10.9885 23.2904 11.1233 22.8522 11.2076 22.2118C11.5615 19.5659 12.0333 17.4593 12.5726 15.9089C13.0951 14.3921 13.6512 13.3473 14.1736 12.7743C14.6792 12.2518 15.1343 11.9822 15.5556 11.9822C15.8084 11.9822 15.9095 12.0665 15.96 12.1339C16.0274 12.2181 16.1117 12.4035 16.1117 12.808C16.1117 13.5663 15.8589 15.2853 15.3533 17.9481C15.168 18.9424 15.0163 19.8187 14.8983 20.5771C14.7803 21.3355 14.7129 21.959 14.7129 22.4309C14.7129 23.0376 14.8309 23.4589 15.0837 23.7117C15.3365 23.9645 15.7072 24.1162 16.196 24.1162C16.7353 24.1162 17.1566 23.9476 17.4431 23.6274C17.6959 23.3409 17.8644 22.8354 17.9487 22.077C18.2689 19.6333 18.6902 17.611 19.1958 16.0774C19.7013 14.5775 20.2238 13.4821 20.7462 12.8585C21.2349 12.2855 21.69 11.999 22.0776 11.999C22.263 11.999 22.3472 12.0665 22.3978 12.117C22.4652 12.2013 22.5495 12.3698 22.5495 12.7406C22.5495 12.9428 22.5326 13.145 22.5158 13.3473C22.482 13.5495 22.4315 13.7854 22.3978 14.0382C22.3304 14.291 22.3135 14.4764 22.2798 14.5607L21.6057 17.611C21.3361 18.8918 21.2012 19.8693 21.2012 20.5602C21.2012 21.6051 21.5214 22.4477 22.1113 23.105C22.718 23.7623 23.5606 24.0656 24.6223 24.0656C25.3133 24.0656 25.9874 23.8802 26.5941 23.5263C27.2008 23.1893 27.8075 22.65 28.4311 21.9085C28.7007 21.5714 28.8355 21.1501 28.8355 20.6277C28.8187 20.3074 28.7513 20.0547 28.6165 19.8524Z" fill="#26B55F"/>
</svg>
