<svg width="33" height="36" viewBox="0 0 33 36" fill="none" xmlns="http://www.w3.org/2000/svg">
<path d="M30.2111 26.5265L18.3156 34.4267C16.9227 35.344 15.1135 35.344 13.7367 34.4267L1.84116 26.5265C0.688435 25.7572 0 24.4701 0 23.0942V4.11286C0 1.84931 1.85717 0 4.13061 0H27.9216C30.2111 0 32.0522 1.84931 32.0522 4.11286V23.0942C32.0522 24.4701 31.3638 25.7572 30.2111 26.5265Z" fill="white"/>
<path d="M27.1848 17.4279C27.0407 17.2059 26.8005 17.0728 26.5283 17.0728C26.3522 17.0728 26.064 17.132 25.8079 17.3983C25.3756 17.8717 25.0074 18.212 24.7032 18.4191C24.447 18.5818 24.1588 18.6706 23.9027 18.6706C23.6465 18.6706 23.4384 18.6114 23.3263 18.4931C23.1822 18.3599 23.1342 18.1232 23.1342 17.8125C23.1342 17.487 23.1982 17.0876 23.2943 16.629L24.2549 12.4421C24.399 11.7912 24.479 11.2586 24.479 10.7999C24.479 9.92706 24.2389 9.23172 23.8066 8.72871C23.3103 8.19611 22.6219 7.92981 21.7893 7.92981C20.7647 7.92981 19.8681 8.25529 19.0836 8.90624C18.6834 9.23172 18.3312 9.67556 17.9629 10.223C17.8829 9.61638 17.6587 9.11337 17.3225 8.74351C16.8422 8.2109 16.2018 7.92981 15.4013 7.92981C14.4087 7.92981 13.4801 8.28488 12.6636 8.96542C12.2793 9.27611 11.9271 9.70515 11.6069 10.223C11.5909 9.52761 11.4148 8.95063 11.0466 8.56597C10.6463 8.16652 10.102 7.9446 9.41352 7.9446C8.70908 7.9446 8.02064 8.15173 7.33221 8.53638C6.67579 8.92104 6.0514 9.45364 5.53908 10.149C5.36296 10.3857 5.23488 10.5928 5.15483 10.7703C5.05877 10.9775 5.01074 11.1698 5.01074 11.3769C5.01074 11.6136 5.09079 11.8355 5.25089 12.0427C5.49105 12.3238 5.76322 12.3682 5.95534 12.3682C6.17948 12.3682 6.46766 12.2942 6.75584 11.9391C7.18812 11.4065 7.58837 11.0219 7.9566 10.7703C8.35686 10.5188 8.59701 10.4597 8.70908 10.4597C8.77312 10.4597 8.85317 10.4597 8.85317 10.7556C8.85317 11.1994 8.82115 11.7912 8.70908 12.4717C8.54898 13.5813 8.32484 14.9128 8.06867 16.4366C7.90857 17.2651 7.7965 17.9309 7.73246 18.3895C7.65241 18.8629 7.6364 19.2772 7.6364 19.6026C7.6364 20.15 7.74847 20.5199 7.98862 20.7714C8.22878 21.0081 8.61302 21.1265 9.10933 21.1265C9.65368 21.1265 10.0539 20.9785 10.2621 20.6826C10.4382 20.4459 10.5663 20.0613 10.6463 19.4991C10.9825 17.1764 11.4308 15.327 11.9431 13.966C12.4394 12.6345 12.9678 11.7172 13.4641 11.2142C13.9444 10.7556 14.3767 10.5188 14.7769 10.5188C15.0171 10.5188 15.1131 10.5928 15.1612 10.652C15.2252 10.726 15.3052 10.8887 15.3052 11.2438C15.3052 11.9095 15.0651 13.4186 14.5848 15.7561C14.4087 16.629 14.2646 17.3983 14.1525 18.064C14.0404 18.7298 13.9764 19.2772 13.9764 19.6914C13.9764 20.224 14.0885 20.5939 14.3286 20.8158C14.5688 21.0377 14.921 21.1709 15.3853 21.1709C15.8976 21.1709 16.2979 21.0229 16.57 20.7418C16.8102 20.4903 16.9703 20.0465 17.0503 19.3807C17.3545 17.2355 17.7548 15.4602 18.2351 14.1139C18.7154 12.7972 19.2117 11.8356 19.708 11.2882C20.1723 10.7851 20.6046 10.5336 20.9728 10.5336C21.1489 10.5336 21.229 10.5928 21.277 10.6372C21.3411 10.7112 21.4211 10.8591 21.4211 11.1846C21.4211 11.3621 21.4051 11.5397 21.3891 11.7172C21.3571 11.8947 21.309 12.1019 21.277 12.3238C21.213 12.5457 21.197 12.7084 21.1649 12.7824L20.5245 15.4602C20.2684 16.5846 20.1403 17.4427 20.1403 18.0492C20.1403 18.9665 20.4445 19.7062 21.0048 20.2832C21.5812 20.8602 22.3817 21.1265 23.3904 21.1265C24.0468 21.1265 24.6872 20.9637 25.2635 20.6531C25.8399 20.3572 26.4163 19.8837 27.0086 19.2328C27.2648 18.9369 27.3929 18.567 27.3929 18.1084C27.3769 17.8273 27.3128 17.6054 27.1848 17.4279Z" fill="#26B55F"/>
</svg>
