<svg width="70" height="70" viewBox="0 0 70 70" fill="none" xmlns="http://www.w3.org/2000/svg">
<rect x="4.5" y="4.5" width="61" height="61" rx="30.5" fill="#3186F5" stroke="white" stroke-width="9"/>
<path d="M43.2935 44.7078C43.6844 45.0979 44.3176 45.0973 44.7078 44.7065C45.0979 44.3156 45.0973 43.6824 44.7065 43.2922L43.2935 44.7078ZM39.5871 39.5953L38.8805 38.8876L39.5871 39.5953ZM33.9615 40.9231C30.1168 40.9231 27 37.8063 27 33.9615H25C25 38.9109 29.0122 42.9231 33.9615 42.9231V40.9231ZM27 33.9615C27 30.1168 30.1168 27 33.9615 27V25C29.0122 25 25 29.0122 25 33.9615H27ZM33.9615 27C37.8063 27 40.9231 30.1168 40.9231 33.9615H42.9231C42.9231 29.0122 38.9109 25 33.9615 25V27ZM40.9231 33.9615C40.9231 35.886 40.1435 37.6265 38.8805 38.8876L40.2937 40.3029C41.917 38.6819 42.9231 36.4383 42.9231 33.9615H40.9231ZM38.8805 38.8876C37.6199 40.1464 35.8824 40.9231 33.9615 40.9231V42.9231C36.4336 42.9231 38.6735 41.9208 40.2937 40.3029L38.8805 38.8876ZM38.8807 40.303L43.2935 44.7078L44.7065 43.2922L40.2936 38.8875L38.8807 40.303Z" fill="white"/>
</svg>
