<svg width="92" height="40" viewBox="0 0 92 40" fill="none" xmlns="http://www.w3.org/2000/svg">
<rect width="92" height="40" rx="20" fill="white"/>
<rect x="0.5" y="0.5" width="91" height="39" rx="19.5" stroke="#F4F4F4" stroke-opacity="0.78"/>
<path d="M69.75 14.6154C69.75 17.1644 67.698 19.2308 65.1667 19.2308C62.6354 19.2308 60.5833 17.1644 60.5833 14.6154C60.5833 12.0664 62.6354 10 65.1667 10C67.698 10 69.75 12.0664 69.75 14.6154Z" fill="#A4ABB1"/>
<path d="M65.1667 30C69.7068 30 72.3226 28.8207 73.536 28.0617C74.1038 27.7065 74.3836 27.0525 74.3259 26.375C74.2314 25.2667 73.7895 24.1601 73.4062 23.3815C73.0662 22.6908 72.3458 22.3077 71.5802 22.3077H58.7531C57.9875 22.3077 57.2671 22.6908 56.9271 23.3815C56.5439 24.1601 56.1019 25.2667 56.0074 26.375C55.9497 27.0525 56.2295 27.7065 56.7973 28.0617C58.0107 28.8207 60.6265 30 65.1667 30Z" fill="#A4ABB1"/>
<g clip-path="url(#clip0)">
<path d="M35.99 13.77H24.01C23.7443 13.7713 23.4896 13.8768 23.3008 14.0637C23.1119 14.2507 23.0039 14.5043 23 14.77V15.18C23.0005 15.4476 23.1071 15.7041 23.2965 15.8933C23.4858 16.0824 23.7424 16.1888 24.01 16.189H35.99C36.2576 16.1888 36.5142 16.0824 36.7035 15.8933C36.8929 15.7041 36.9995 15.4476 37 15.18V14.772C36.9966 14.5059 36.8888 14.2519 36.6999 14.0644C36.511 13.877 36.2561 13.7713 35.99 13.77Z" fill="#A4ABB1"/>
<path d="M35.99 18.4446H24.01C23.7443 18.4459 23.4896 18.5513 23.3008 18.7383C23.1119 18.9253 23.0039 19.1789 23 19.4446V19.8516C23.0003 20.1194 23.1068 20.3761 23.2961 20.5655C23.4855 20.7548 23.7422 20.8613 24.01 20.8616H35.99C36.2568 20.8613 36.5126 20.7557 36.7018 20.5676C36.891 20.3795 36.9982 20.1243 37 19.8576V19.4496C36.9976 19.1829 36.8903 18.9279 36.7013 18.7398C36.5122 18.5517 36.2567 18.4456 35.99 18.4446Z" fill="#A4ABB1"/>
<path d="M35.987 23.637H24.01C23.7443 23.6382 23.4896 23.7437 23.3008 23.9307C23.1119 24.1177 23.0039 24.3712 23 24.637V25.043C23.0003 25.3107 23.1068 25.5675 23.2961 25.7568C23.4855 25.9462 23.7422 26.0527 24.01 26.053H35.987C36.2548 26.0535 36.5118 25.9478 36.7018 25.759C36.8917 25.5702 36.9989 25.3137 37 25.046V24.639C36.9968 24.3723 36.8888 24.1176 36.6992 23.9301C36.5095 23.7425 36.2537 23.6372 35.987 23.637Z" fill="#A4ABB1"/>
</g>
<defs>
<clipPath id="clip0">
<rect width="14" height="14" fill="white" transform="translate(23 13)"/>
</clipPath>
</defs>
</svg>
