<svg width="19" height="20" viewBox="0 0 19 20" fill="none" xmlns="http://www.w3.org/2000/svg">
<path d="M13.75 4.61538C13.75 7.16439 11.698 9.23077 9.16667 9.23077C6.63536 9.23077 4.58333 7.16439 4.58333 4.61538C4.58333 2.06638 6.63536 0 9.16667 0C11.698 0 13.75 2.06638 13.75 4.61538Z" fill="#A4ABB1"/>
<path d="M9.16667 20C13.7068 20 16.3226 18.8207 17.536 18.0617C18.1038 17.7065 18.3836 17.0525 18.3259 16.375C18.2314 15.2667 17.7895 14.1601 17.4062 13.3815C17.0662 12.6908 16.3458 12.3077 15.5802 12.3077H2.7531C1.9875 12.3077 1.26711 12.6908 0.927093 13.3815C0.54386 14.1601 0.101905 15.2667 0.007439 16.375C-0.0503052 17.0525 0.229547 17.7065 0.79734 18.0617C2.01075 18.8207 4.62652 20 9.16667 20Z" fill="#A4ABB1"/>
</svg>
