<svg width="18" height="16" viewBox="0 0 18 16" fill="none" xmlns="http://www.w3.org/2000/svg">
<path fill-rule="evenodd" clip-rule="evenodd" d="M17.5789 0.125769C17.8409 0.279206 18.0004 0.550251 18.0004 0.842106V12.6316C18.0004 12.9505 17.8102 13.2421 17.5091 13.3848L12.1757 15.9111C11.9255 16.0296 11.6309 16.0296 11.3807 15.9111L6.44488 13.5731L1.50907 15.9111C1.23352 16.0416 0.906288 16.0277 0.644229 15.8742C0.382169 15.7208 0.222656 15.4497 0.222656 15.1579V2.52632C0.222656 2.16385 0.467483 1.84205 0.830454 1.72743L6.16379 0.0432149C6.38744 -0.0274114 6.63154 -0.0109765 6.8424 0.0889043L11.7782 2.42692L16.714 0.0889043C16.9896 -0.0416172 17.3168 -0.0276685 17.5789 0.125769ZM10.8893 3.88887L7.33377 2.20466V12.1111L10.8893 13.7953V3.88887ZM12.6671 13.7953L16.2227 12.1111V2.20466L12.6671 3.88887V13.7953ZM5.55599 12.1111V2.01046L2.00043 3.13327V13.7953L5.55599 12.1111Z" fill="#0E1C2D"/>
</svg>
