<svg width="33" height="18" viewBox="0 0 33 18" fill="none" xmlns="http://www.w3.org/2000/svg">
<path fill-rule="evenodd" clip-rule="evenodd" d="M0.0415877 8.12919C0.0147124 8.20004 0 8.27687 0 8.35714C0 8.41409 0.00433799 8.46933 0.0124344 8.5228C0.00417918 8.68082 0 8.83992 0 9C0 13.9706 4.02944 18 9 18C13.9706 18 18 13.9706 18 9C18 8.83992 17.9958 8.68082 17.9876 8.52279C17.9957 8.46932 18 8.41409 18 8.35714C18 8.27687 17.9853 8.20004 17.9584 8.12919C17.5204 3.56722 13.6768 0 9 0C4.32321 0 0.479584 3.56722 0.0415877 8.12919ZM9 1.28571C8.33677 1.28571 7.53235 1.89517 6.85628 3.36C6.2054 4.77023 5.78571 6.76362 5.78571 9C5.78571 9.16561 5.78802 9.32988 5.79254 9.49268C6.77241 9.58893 7.85643 9.64286 9 9.64286C10.1436 9.64286 11.2276 9.58893 12.2075 9.49268C12.212 9.32988 12.2143 9.16561 12.2143 9C12.2143 6.76362 11.7946 4.77023 11.1437 3.36C10.4676 1.89517 9.66323 1.28571 9 1.28571ZM12.122 10.7922C11.1507 10.8806 10.0975 10.9286 9 10.9286C7.9025 10.9286 6.84926 10.8806 5.87799 10.7922C6.03548 12.2942 6.38538 13.6197 6.85628 14.64C7.53235 16.1048 8.33677 16.7143 9 16.7143C9.66323 16.7143 10.4676 16.1048 11.1437 14.64C11.6146 13.6197 11.9645 12.2942 12.122 10.7922ZM4.5029 9.33294C4.50097 9.22241 4.5 9.11142 4.5 9C4.5 6.62086 4.94376 4.43568 5.6889 2.82121C5.85761 2.45568 6.04852 2.10653 6.26083 1.78617C3.54868 2.81657 1.56829 5.33255 1.31353 8.34022C1.36391 8.39003 1.45544 8.46054 1.6075 8.5435C1.95642 8.73388 2.50383 8.92568 3.23516 9.09445C3.61897 9.18302 4.0437 9.26308 4.5029 9.33294ZM1.3307 9.838C1.77968 10.036 2.33038 10.2052 2.94605 10.3472C3.43646 10.4604 3.9821 10.5595 4.57186 10.6424C4.72553 12.3759 5.1191 13.9442 5.6889 15.1788C5.85761 15.5443 6.04852 15.8935 6.26083 16.2138C3.60242 15.2038 1.64706 12.7666 1.3307 9.838ZM16.6865 8.34022C16.4317 5.33255 14.4513 2.81657 11.7392 1.78617C11.9515 2.10653 12.1424 2.45568 12.3111 2.82121C13.0562 4.43568 13.5 6.62086 13.5 9C13.5 9.11142 13.499 9.22241 13.4971 9.33294C13.9563 9.26308 14.381 9.18302 14.7648 9.09445C15.4962 8.92568 16.0436 8.73388 16.3925 8.5435C16.5446 8.46054 16.6361 8.39003 16.6865 8.34022ZM16.6693 9.838C16.2203 10.036 15.6696 10.2052 15.0539 10.3472C14.5635 10.4604 14.0179 10.5595 13.4281 10.6424C13.2745 12.3759 12.8809 13.9442 12.3111 15.1788C12.1424 15.5443 11.9515 15.8935 11.7392 16.2138C14.3976 15.2038 16.3529 12.7666 16.6693 9.838Z" fill="#96A1AB"/>
<path fill-rule="evenodd" clip-rule="evenodd" d="M23.2197 7.21967C23.5126 6.92678 23.9874 6.92678 24.2803 7.21967L27.75 10.6893L31.2197 7.21967C31.5126 6.92678 31.9874 6.92678 32.2803 7.21967C32.5732 7.51256 32.5732 7.98744 32.2803 8.28033L28.2803 12.2803C28.1397 12.421 27.9489 12.5 27.75 12.5C27.5511 12.5 27.3603 12.421 27.2197 12.2803L23.2197 8.28033C22.9268 7.98744 22.9268 7.51256 23.2197 7.21967Z" fill="#0E1C2D"/>
</svg>
